<?xml version="1.0" standalone="no"?>
<!DOCTYPE svg PUBLIC "-//W3C//DTD SVG 20010904//EN"
 "http://www.w3.org/TR/2001/REC-SVG-20010904/DTD/svg10.dtd">
<svg version="1.0" xmlns="http://www.w3.org/2000/svg"
 width="1600.000000pt" height="1600.000000pt" viewBox="0 0 1600.000000 1600.000000"
 preserveAspectRatio="xMidYMid meet">
<metadata>
Created by potrace 1.11, written by Peter Selinger 2001-2013
</metadata>
<g transform="translate(0.000000,1600.000000) scale(0.100000,-0.100000)"
fill="#000000" stroke="none">
<path d="M7578 15825 c-2 -2 -79 -6 -173 -10 -93 -3 -192 -8 -220 -10 -27 -2
-90 -6 -140 -10 -49 -3 -117 -8 -150 -11 -187 -13 -322 -24 -370 -29 -16 -2
-57 -7 -90 -10 -33 -3 -71 -8 -85 -10 -14 -3 -43 -8 -65 -11 -35 -4 -129 -19
-190 -29 -11 -1 -36 -5 -55 -9 -54 -8 -226 -41 -266 -50 -12 -2 -37 -7 -55
-10 -19 -3 -72 -15 -119 -26 -47 -11 -97 -22 -111 -24 -14 -3 -93 -20 -175
-40 -82 -19 -160 -37 -174 -39 -14 -3 -32 -8 -40 -11 -8 -3 -26 -8 -40 -10
-14 -3 -46 -12 -73 -20 -26 -8 -49 -15 -52 -16 -3 0 -6 0 -7 -1 -2 0 -10 -2
-18 -4 -8 -1 -35 -8 -60 -15 -25 -7 -52 -14 -60 -16 -8 -2 -80 -22 -160 -45
-80 -22 -154 -43 -165 -46 -18 -4 -25 -6 -47 -13 -4 -1 -38 -13 -75 -27 -37
-13 -72 -26 -78 -27 -5 -2 -17 -6 -25 -9 -42 -17 -207 -78 -220 -82 -14 -3
-201 -75 -245 -94 -11 -5 -42 -18 -70 -29 -164 -68 -491 -206 -494 -209 -3 -2
5 -54 18 -116 13 -62 25 -123 27 -137 3 -14 10 -43 16 -65 5 -22 12 -53 14
-70 2 -16 6 -39 8 -50 14 -60 69 -323 71 -340 2 -11 4 -22 5 -25 3 -6 4 -11
14 -75 5 -27 11 -54 15 -60 3 -5 7 -21 8 -35 3 -21 15 -82 39 -195 2 -11 9
-44 15 -73 l10 -52 182 -120 c100 -65 189 -124 197 -130 8 -5 179 -119 380
-252 201 -132 518 -343 705 -467 187 -124 345 -228 350 -231 6 -3 132 -85 280
-184 149 -98 308 -204 355 -235 47 -31 89 -60 95 -64 5 -4 141 -94 300 -199
651 -429 1101 -727 1112 -737 7 -6 14 -11 17 -11 3 0 34 -20 69 -45 36 -25 69
-45 75 -45 6 0 12 -4 14 -8 2 -4 66 -49 143 -99 77 -51 145 -96 150 -101 6 -4
30 -20 55 -34 l45 -26 314 209 c173 115 318 209 323 209 4 0 8 4 8 9 0 5 6 11
13 13 6 2 208 133 447 292 239 159 525 349 635 421 160 106 943 624 1005 665
8 5 48 32 88 60 41 27 75 50 77 50 2 0 88 56 191 125 103 69 189 125 191 125
2 0 9 5 16 11 7 5 113 77 237 159 124 81 230 153 237 159 7 6 14 11 17 11 3 0
165 106 359 235 375 249 354 232 373 315 7 32 47 228 55 270 13 73 19 100 40
193 10 48 22 105 25 125 3 20 7 45 10 54 5 18 12 48 19 93 3 17 8 37 10 45 2
8 6 26 9 40 3 14 7 36 10 50 34 156 69 340 65 343 -2 2 -76 34 -164 71 -88 37
-173 74 -190 81 -16 7 -55 23 -85 35 -30 12 -64 26 -75 31 -11 4 -56 22 -100
39 -44 17 -89 35 -100 39 -25 11 -88 35 -95 37 -3 0 -16 5 -30 11 -67 27 -372
133 -425 148 -33 9 -71 21 -85 26 -26 9 -466 127 -498 134 -9 2 -92 22 -183
44 -171 41 -210 50 -244 56 -11 1 -38 8 -60 13 -48 13 -89 22 -130 28 -16 2
-37 7 -47 10 -9 2 -25 6 -35 8 -81 16 -202 39 -218 41 -24 4 -183 31 -240 40
-22 4 -51 8 -65 9 -14 2 -43 6 -65 9 -100 16 -321 37 -570 52 -49 3 -110 8
-135 10 -45 4 -159 11 -320 21 -88 6 -1027 13 -1032 9z m2981 -1739 c-9 -9
-675 -451 -684 -455 -5 -2 -12 -7 -15 -10 -6 -8 -181 -124 -195 -130 -5 -2
-12 -7 -15 -10 -3 -4 -214 -146 -470 -316 -256 -170 -466 -313 -468 -317 -2
-5 -8 -8 -13 -8 -5 0 -86 -52 -179 -115 -93 -63 -172 -115 -175 -115 -3 0 -13
-6 -21 -12 -8 -7 -20 -17 -27 -23 -7 -5 -24 -16 -39 -24 -15 -8 -37 -22 -47
-33 -11 -10 -23 -18 -26 -18 -4 0 -49 -29 -100 -65 l-93 -64 -764 509 c-420
280 -768 513 -775 519 -7 6 -14 11 -17 11 -2 0 -37 23 -78 50 -86 59 -77 53
-198 133 -52 34 -96 65 -98 70 -2 4 -7 7 -12 7 -5 0 -48 27 -97 60 -110 74
-95 65 -238 159 -66 44 -125 85 -132 91 -7 5 -14 10 -17 10 -4 0 -133 86 -145
96 -2 2 1154 4 2569 4 1415 0 2571 -2 2569 -4z"/>
<path d="M100 14999 c0 -11 41 -206 60 -284 8 -32 47 -210 66 -300 9 -45 13
-62 24 -110 14 -61 19 -82 25 -117 3 -16 12 -58 21 -95 18 -78 17 -72 39 -178
9 -44 19 -87 20 -95 2 -8 13 -60 25 -114 12 -55 23 -102 25 -105 1 -3 6 -24 9
-46 4 -22 13 -67 21 -100 8 -33 28 -125 45 -205 18 -80 34 -154 36 -165 3 -11
7 -31 10 -45 6 -30 62 -286 69 -315 4 -17 17 -76 31 -140 2 -11 6 -29 8 -40 3
-11 14 -63 25 -115 11 -52 34 -156 51 -230 17 -74 32 -146 35 -160 2 -14 9
-47 15 -75 7 -27 14 -61 16 -75 3 -14 10 -45 15 -70 10 -43 13 -56 23 -108 3
-13 7 -31 10 -40 3 -9 7 -28 10 -42 5 -32 32 -153 56 -255 10 -44 21 -93 24
-110 3 -16 15 -73 27 -125 11 -52 23 -104 25 -115 2 -11 8 -40 14 -65 7 -25
13 -56 16 -70 2 -14 13 -65 24 -115 11 -49 22 -101 25 -115 3 -14 10 -45 15
-70 27 -120 52 -234 55 -250 1 -8 44 -46 96 -83 52 -38 103 -75 114 -83 11 -8
124 -89 250 -179 127 -91 313 -225 414 -298 102 -72 196 -140 210 -149 14 -9
76 -53 136 -98 61 -44 162 -117 225 -162 63 -45 120 -87 127 -92 14 -14 508
-367 531 -381 9 -5 19 -12 22 -15 15 -16 192 -140 199 -140 5 0 11 -3 13 -8 2
-4 26 -24 53 -43 35 -26 65 -38 100 -43 28 -3 59 -8 70 -10 27 -5 84 -14 120
-20 17 -3 86 -14 155 -25 69 -11 143 -23 165 -25 22 -3 50 -8 61 -10 32 -6 94
-16 134 -22 19 -2 46 -6 60 -9 14 -3 39 -7 55 -9 17 -2 57 -9 90 -15 33 -6 78
-13 100 -16 22 -4 55 -10 74 -15 19 -5 37 -7 41 -5 3 2 24 0 46 -5 21 -4 59
-11 84 -15 25 -4 54 -8 65 -10 11 -2 38 -6 60 -10 22 -3 78 -12 125 -20 47 -8
105 -17 130 -20 25 -3 52 -8 60 -10 14 -4 77 -14 130 -20 14 -2 52 -8 85 -14
33 -5 76 -12 95 -16 73 -12 286 -46 320 -51 35 -5 125 -20 177 -29 16 -3 55
-9 88 -14 61 -10 123 -20 160 -26 11 -2 46 -6 79 -10 l58 -8 -6 29 c-9 42 -15
74 -20 116 -3 21 -8 53 -11 70 -12 77 -16 98 -31 193 -8 55 -17 111 -20 125
-2 14 -7 43 -10 65 -3 22 -7 51 -10 65 -2 14 -7 41 -10 60 -3 19 -7 46 -10 60
-2 14 -9 54 -14 90 -5 36 -12 76 -15 90 -2 14 -7 43 -10 65 -3 22 -8 51 -10
65 -2 14 -6 43 -9 65 -3 22 -8 51 -11 65 -2 14 -7 41 -10 60 -3 19 -8 46 -10
60 -3 14 -7 42 -10 64 -2 21 -7 46 -9 55 -3 9 -7 34 -10 56 -11 87 -16 122
-26 170 -5 28 -12 68 -15 90 -3 23 -7 50 -9 60 -2 11 -7 43 -10 70 -11 77 -16
109 -21 125 -3 8 -7 35 -10 60 -5 39 -11 80 -30 187 -3 16 -7 48 -11 73 -3 25
-7 52 -9 60 -3 8 -7 38 -10 65 -3 28 -8 57 -10 65 -3 8 -7 33 -10 55 -4 22
-12 78 -20 123 -8 46 -14 87 -13 90 0 4 -1 9 -2 12 -2 7 -8 37 -15 86 -3 22
-8 52 -10 65 -2 13 -7 42 -10 64 -4 22 -8 47 -10 55 -2 8 -4 20 -4 26 -1 9
-549 381 -596 404 -16 8 -130 84 -135 91 -3 3 -9 8 -15 10 -10 4 -61 37 -589
387 -142 95 -263 172 -267 172 -5 0 -9 4 -9 9 0 5 -6 11 -12 13 -7 2 -168 106
-358 232 -536 356 -634 421 -645 425 -5 2 -15 9 -21 15 -7 6 -102 70 -212 141
-127 82 -202 137 -205 150 -4 19 -49 235 -62 298 -3 15 -7 38 -10 52 -3 14 -7
36 -10 50 -3 14 -7 35 -10 48 -3 12 -11 54 -19 92 -7 39 -42 207 -76 375 -34
168 -63 316 -66 330 -2 14 -9 45 -14 70 -5 25 -12 56 -15 70 -2 14 -10 48 -16
75 -6 28 -12 57 -13 65 -2 11 -18 16 -57 18 -30 1 -76 4 -104 7 -27 2 -81 6
-120 9 -38 3 -99 7 -135 11 -36 3 -90 8 -120 10 -83 6 -209 15 -265 20 -27 2
-86 7 -130 10 -44 3 -105 8 -135 11 -30 2 -88 7 -129 9 -41 3 -99 8 -130 11
-31 2 -85 7 -121 9 -36 2 -92 7 -125 9 -33 3 -89 8 -125 11 -36 2 -96 7 -135
10 -38 4 -99 8 -135 10 -36 3 -90 7 -120 10 -30 2 -86 7 -125 10 -121 9 -198
16 -252 21 -37 4 -53 2 -53 -7z m1490 -1724 c41 -27 77 -53 78 -57 2 -5 8 -8
13 -8 7 0 96 -57 109 -70 3 -3 59 -41 125 -85 369 -247 960 -650 963 -657 2
-4 8 -8 13 -8 10 0 103 -62 107 -72 2 -5 9 -8 16 -8 7 0 21 -8 32 -17 22 -21
232 -163 239 -163 3 0 13 -7 23 -16 16 -15 153 -108 797 -541 138 -92 252
-170 255 -173 3 -3 109 -75 235 -159 127 -85 246 -167 266 -183 20 -15 41 -28
45 -28 20 -1 54 -40 58 -66 5 -28 7 -45 22 -149 3 -27 8 -59 10 -69 2 -11 8
-56 14 -100 6 -45 13 -94 16 -109 l5 -29 -32 24 c-17 12 -38 28 -47 33 -19 12
-53 35 -267 180 -88 60 -221 150 -295 200 -125 85 -442 299 -825 558 -531 358
-638 430 -805 544 -102 69 -265 180 -363 247 -99 66 -186 126 -195 131 -23 14
-103 69 -162 110 -27 19 -54 35 -59 35 -5 0 -11 4 -13 8 -1 4 -57 44 -123 89
-66 44 -161 108 -212 143 -51 34 -95 69 -97 78 -3 10 -17 76 -31 147 -15 72
-28 139 -31 150 -14 71 -25 125 -30 159 l-6 39 39 -29 c21 -16 72 -52 113 -79z
m168 -1332 c31 -21 62 -42 67 -46 26 -20 352 -238 365 -244 8 -4 17 -9 20 -12
3 -4 208 -141 455 -307 1223 -817 1390 -929 1393 -936 2 -4 8 -8 12 -8 5 0 69
-40 142 -90 148 -100 139 -94 227 -153 35 -23 71 -47 80 -52 27 -17 75 -49 86
-58 12 -9 66 -45 155 -103 36 -24 70 -47 75 -51 9 -8 152 -104 220 -148 150
-98 143 -89 160 -200 3 -22 8 -48 11 -58 3 -11 7 -29 9 -40 2 -19 15 -89 39
-217 3 -14 7 -35 10 -48 3 -16 1 -20 -7 -15 -7 4 -79 53 -162 108 -82 56 -213
144 -290 195 -77 52 -141 98 -143 102 -2 4 -8 8 -12 8 -5 0 -71 42 -147 94
-76 51 -273 184 -438 296 -165 111 -384 259 -488 328 -103 70 -195 132 -205
137 -9 6 -19 12 -22 16 -3 3 -122 83 -265 178 -143 96 -269 182 -281 192 -11
11 -23 19 -26 19 -5 0 -149 96 -246 163 -28 21 -56 37 -61 37 -5 0 -11 3 -13
8 -4 10 -156 112 -167 112 -5 0 -11 4 -13 8 -1 5 -111 81 -243 170 l-241 162
-29 117 c-16 65 -30 123 -31 128 -1 6 -10 39 -19 75 -37 147 -42 170 -39 170
3 0 30 -17 62 -37z"/>
<path d="M15818 15004 c-2 -1 -51 -6 -108 -9 -58 -4 -121 -8 -140 -10 -73 -7
-178 -16 -250 -21 -41 -2 -97 -7 -125 -9 -27 -2 -87 -6 -133 -9 -45 -3 -104
-8 -130 -11 -26 -2 -81 -7 -122 -10 -71 -5 -157 -12 -245 -20 -22 -2 -83 -6
-135 -10 -117 -8 -175 -13 -262 -20 -38 -3 -98 -7 -135 -10 -38 -3 -90 -7
-118 -10 -27 -2 -88 -6 -135 -10 -47 -3 -101 -8 -120 -10 -19 -2 -75 -7 -125
-11 -82 -6 -130 -10 -161 -13 -7 0 -17 -29 -23 -63 -6 -35 -13 -72 -15 -83 -2
-11 -22 -110 -45 -220 -22 -110 -42 -211 -45 -225 -3 -14 -7 -34 -9 -45 -4
-17 -61 -299 -73 -360 -6 -33 -22 -108 -28 -135 -3 -13 -8 -42 -12 -64 -3 -22
-7 -44 -10 -47 -2 -4 -6 -24 -10 -44 -3 -21 -7 -45 -9 -54 -2 -9 -13 -61 -25
-116 -13 -62 -26 -103 -36 -108 -8 -5 -58 -38 -110 -73 -52 -35 -96 -64 -98
-64 -3 0 -37 -23 -78 -50 -40 -28 -80 -54 -88 -60 -8 -5 -139 -91 -290 -191
-151 -100 -374 -247 -495 -327 -121 -80 -359 -238 -530 -351 -170 -113 -313
-207 -317 -209 -6 -3 -358 -234 -398 -262 -8 -6 -152 -101 -320 -211 -168
-111 -308 -204 -313 -208 -9 -9 -13 -26 -22 -102 -4 -30 -8 -56 -10 -59 -2 -3
-6 -27 -9 -55 -4 -27 -11 -75 -16 -105 -9 -45 -61 -369 -75 -460 -12 -79 -18
-117 -21 -135 -3 -11 -6 -38 -9 -60 -2 -22 -7 -51 -10 -65 -6 -28 -12 -67 -19
-120 -3 -19 -8 -48 -11 -65 -6 -38 -13 -79 -20 -130 -4 -22 -8 -51 -11 -65 -6
-32 -8 -47 -44 -276 -16 -105 -36 -229 -44 -275 -13 -77 -29 -180 -31 -204 -1
-5 -5 -30 -9 -55 -5 -25 -10 -52 -11 -60 -3 -15 -13 -84 -20 -130 -15 -95 -32
-204 -45 -280 -5 -30 -11 -68 -14 -85 -2 -16 -8 -50 -12 -75 -9 -55 -10 -63
-18 -125 -4 -27 -11 -68 -16 -90 -12 -50 -12 -68 -2 -61 4 2 32 7 62 11 29 3
56 8 59 9 3 2 29 7 56 10 28 4 88 13 135 21 91 15 150 24 190 30 14 2 40 6 58
9 65 12 88 16 152 25 67 10 110 18 145 26 11 2 45 7 75 10 30 3 62 8 70 10 18
5 57 12 120 20 25 3 68 10 95 15 28 5 68 12 90 15 45 6 216 34 255 41 14 3 41
7 60 10 19 2 46 6 60 9 14 3 43 7 65 11 45 6 80 12 110 18 11 2 42 7 68 10 26
4 70 11 98 16 27 5 53 9 57 9 4 -1 9 0 12 1 8 3 41 8 85 15 22 3 50 7 61 9 12
2 39 7 60 10 22 3 50 8 64 11 14 2 43 7 65 10 52 7 154 24 181 29 12 2 45 7
75 11 30 4 57 8 60 10 3 2 25 6 50 10 24 3 53 7 64 9 11 3 31 5 45 5 14 1 36
10 50 21 14 11 142 103 285 205 143 102 267 191 275 198 8 7 110 79 225 162
116 82 212 153 213 157 2 4 8 8 13 8 6 0 15 5 22 10 7 6 62 46 122 90 61 44
115 83 120 87 6 5 80 58 165 118 85 60 160 113 165 118 6 4 39 29 75 55 36 25
67 49 70 52 3 3 13 10 22 15 17 10 381 270 495 354 34 25 80 59 102 75 41 29
46 38 55 86 3 14 19 88 36 165 17 77 33 151 36 165 3 14 10 45 15 70 6 25 12
54 15 64 16 79 58 275 74 341 16 71 64 290 74 341 2 10 7 30 10 44 13 58 58
267 62 285 2 11 7 34 11 50 4 17 7 32 8 35 1 3 5 25 10 50 5 25 9 47 10 50 8
29 16 59 19 80 2 14 10 48 16 75 6 28 14 61 16 74 3 13 12 54 20 90 8 36 17
77 20 91 3 14 14 66 25 115 12 50 22 99 24 110 2 11 13 61 24 110 12 50 23
101 26 115 2 14 7 36 10 50 3 14 8 36 11 50 3 14 20 95 39 180 91 412 147 668
151 695 3 17 10 48 16 70 5 22 11 47 13 55 7 33 77 355 110 505 19 88 38 176
41 195 3 19 8 38 10 41 2 3 6 21 9 40 3 19 15 73 26 121 11 48 18 91 15 96 -5
9 -51 13 -58 6z m-1278 -1646 c0 -7 -5 -31 -10 -53 -5 -22 -12 -56 -15 -75 -3
-19 -8 -42 -10 -50 -2 -8 -7 -31 -11 -50 -8 -44 -12 -65 -14 -65 -1 0 -3 -11
-5 -25 -6 -42 -19 -107 -31 -152 -3 -9 -51 -48 -107 -86 -220 -149 -474 -320
-512 -345 -22 -15 -44 -30 -50 -35 -5 -4 -57 -39 -115 -77 -58 -39 -106 -73
-108 -77 -2 -5 -10 -8 -17 -8 -7 0 -15 -3 -17 -7 -1 -5 -93 -68 -203 -142
-110 -74 -247 -167 -305 -206 -58 -39 -217 -148 -355 -240 -137 -93 -342 -232
-455 -308 -113 -76 -263 -178 -333 -225 -70 -48 -136 -91 -145 -97 -9 -5 -19
-12 -22 -15 -3 -3 -72 -50 -155 -105 -82 -55 -152 -103 -155 -106 -3 -3 -43
-30 -90 -61 -112 -74 -232 -156 -245 -166 -5 -4 -32 -22 -59 -40 l-48 -33 6
33 c3 18 8 42 10 53 2 11 7 45 10 75 4 30 9 69 12 85 3 17 7 44 8 60 2 17 9
64 16 105 l12 76 112 75 c61 41 173 117 249 169 76 52 146 100 156 105 24 14
104 68 111 75 3 3 104 72 225 154 224 150 518 349 860 581 105 70 294 198 420
284 127 85 289 195 360 244 203 138 443 300 469 317 12 8 42 29 66 45 23 17
50 35 59 40 18 11 139 93 311 211 112 77 120 81 120 62z m-255 -1395 c-5 -15
-67 -256 -80 -313 -1 -8 -8 -35 -15 -60 -14 -51 -18 -70 -19 -87 -1 -9 -383
-275 -459 -318 -9 -5 -19 -12 -22 -16 -3 -3 -59 -41 -125 -85 -66 -44 -133
-89 -150 -101 -16 -12 -79 -53 -138 -92 -59 -39 -113 -76 -120 -81 -7 -6 -131
-90 -277 -187 -146 -97 -269 -181 -275 -185 -10 -9 -579 -392 -900 -606 -88
-59 -161 -110 -163 -114 -2 -5 -10 -8 -17 -8 -7 0 -15 -3 -17 -7 -2 -5 -147
-105 -323 -223 -176 -118 -358 -240 -404 -272 -47 -32 -86 -57 -87 -55 -1 1 4
31 12 67 7 36 16 81 19 100 11 69 47 256 56 291 8 32 30 49 254 200 135 90
253 169 263 174 9 6 40 27 69 48 29 20 55 37 59 37 3 0 23 14 44 30 21 17 42
30 48 30 6 0 12 3 14 8 2 4 71 52 153 107 83 55 152 103 153 107 2 5 8 8 13 8
11 0 463 302 467 313 2 4 8 7 12 7 5 0 37 19 72 43 35 24 395 266 802 538 406
272 813 544 905 606 91 61 170 112 175 112 4 1 5 -7 1 -16z"/>
<path d="M6570 10857 c0 -13 4 -48 10 -78 5 -30 12 -74 15 -99 6 -44 10 -73
20 -127 2 -16 7 -48 10 -73 3 -25 7 -56 10 -70 6 -30 12 -69 20 -130 7 -53 12
-85 25 -160 5 -30 12 -75 15 -100 3 -25 8 -56 10 -70 3 -14 7 -41 9 -60 3 -19
7 -48 10 -65 2 -16 10 -66 16 -110 12 -86 17 -116 24 -155 3 -14 8 -45 11 -70
3 -25 7 -56 10 -70 2 -13 7 -42 10 -65 3 -22 8 -51 10 -65 2 -14 7 -45 10 -70
3 -25 10 -70 15 -100 5 -30 12 -77 15 -105 3 -27 10 -72 15 -100 6 -27 12 -68
15 -90 3 -22 7 -49 9 -60 2 -11 7 -45 11 -75 4 -30 9 -64 11 -75 1 -11 5 -40
9 -64 3 -24 7 -47 9 -50 2 -3 7 -33 11 -66 9 -76 13 -103 20 -140 2 -16 7 -43
9 -60 2 -16 7 -52 11 -80 4 -27 10 -70 15 -93 4 -24 8 -896 8 -1938 0 -1042 2
-1898 5 -1901 4 -3 450 -6 992 -7 l985 -1 1 25 c0 14 2 880 3 1925 2 1045 5
1909 8 1920 3 11 9 40 12 65 3 25 8 54 10 65 3 18 7 43 22 145 2 14 5 36 7 50
3 14 8 45 11 70 4 25 9 56 11 70 2 14 6 45 10 70 3 25 8 57 11 72 6 31 13 79
19 128 5 47 13 96 19 128 5 28 15 86 21 137 5 30 23 155 31 210 2 17 6 41 9
55 3 14 7 43 10 65 3 22 7 49 9 60 2 11 7 45 11 75 12 92 14 101 35 230 10 69
22 145 25 170 3 25 8 56 10 70 9 48 22 139 30 206 3 22 7 46 10 54 2 8 7 35
10 60 3 25 8 56 10 70 3 14 7 43 10 65 3 22 7 51 9 65 10 54 36 235 43 293 l5
48 -173 -120 c-96 -66 -178 -124 -184 -128 -5 -5 -75 -53 -155 -108 -80 -55
-149 -103 -155 -108 -5 -4 -82 -58 -170 -119 -88 -61 -195 -135 -237 -164 -43
-30 -115 -80 -160 -111 -46 -31 -106 -74 -134 -94 l-52 -38 -113 79 c-63 43
-187 130 -277 192 -168 116 -275 191 -327 228 -35 25 -277 193 -420 292 -55
37 -142 98 -192 133 -85 60 -93 63 -93 42z"/>
<path d="M1484 9378 c3 -18 7 -67 10 -108 3 -41 9 -115 13 -165 3 -49 7 -114
7 -142 1 -29 3 -53 6 -53 3 0 5 -12 6 -27 1 -49 15 -264 19 -282 2 -9 6 -64
10 -122 3 -57 8 -117 10 -134 2 -16 7 -68 10 -115 5 -82 9 -128 20 -273 3 -38
8 -92 10 -120 2 -29 7 -92 10 -142 3 -49 8 -112 10 -140 2 -27 7 -75 9 -105 3
-30 8 -91 11 -135 3 -44 7 -107 10 -140 3 -33 7 -91 10 -130 3 -38 8 -92 10
-120 8 -90 24 -303 30 -391 2 -48 9 -134 20 -259 3 -27 7 -79 9 -115 3 -36 8
-99 11 -140 3 -41 8 -100 10 -130 2 -30 7 -84 10 -120 7 -84 14 -176 20 -270
3 -41 7 -97 10 -125 2 -27 7 -90 10 -140 4 -49 8 -106 11 -125 2 -19 6 -71 9
-115 3 -44 8 -109 11 -145 2 -36 7 -92 9 -125 3 -33 7 -94 10 -135 3 -41 8
-97 10 -125 14 -179 16 -214 20 -250 3 -22 7 -78 10 -125 2 -47 7 -105 10
-130 2 -25 7 -83 10 -130 9 -143 12 -153 47 -184 56 -49 91 -79 153 -131 33
-27 62 -52 65 -55 3 -3 61 -52 130 -110 69 -57 175 -147 235 -198 138 -118
135 -116 285 -242 69 -57 127 -107 130 -110 5 -6 184 -157 208 -175 7 -5 23
-19 35 -31 12 -11 63 -54 112 -95 50 -41 92 -76 95 -79 3 -4 77 -66 165 -140
88 -74 162 -137 165 -140 3 -3 64 -55 135 -115 72 -60 141 -120 155 -131 112
-96 206 -174 212 -174 3 0 7 746 8 1658 1 911 2 2028 3 2481 1 705 -1 824 -14
832 -11 7 -203 143 -714 509 -16 11 -75 53 -130 93 -55 40 -110 79 -121 87
-198 137 -204 143 -205 174 0 17 0 184 0 372 l1 341 -73 51 c-39 29 -77 56
-82 60 -10 8 -70 51 -150 106 -16 12 -32 24 -35 27 -3 3 -68 50 -145 105 -77
54 -144 102 -150 107 -5 4 -91 66 -190 137 -99 71 -196 140 -215 154 -116 84
-352 253 -370 266 -12 8 -57 41 -101 73 l-79 57 4 -32z"/>
<path d="M14340 9295 c-80 -57 -150 -108 -155 -113 -6 -5 -24 -17 -40 -28 -17
-10 -35 -23 -41 -29 -6 -6 -37 -28 -70 -50 -32 -22 -61 -43 -64 -47 -3 -3 -40
-30 -82 -60 -77 -53 -304 -215 -323 -230 -16 -13 -188 -137 -215 -156 -14 -9
-52 -36 -85 -60 -81 -59 -85 -62 -201 -145 -55 -39 -112 -81 -126 -93 l-26
-20 0 -368 c0 -202 -3 -371 -8 -375 -9 -8 -629 -450 -714 -510 -82 -57 -185
-130 -214 -153 -16 -13 -52 -39 -81 -58 -28 -20 -63 -45 -77 -55 -28 -22 -56
-41 -77 -54 -11 -7 -13 -414 -12 -2507 1 -1374 3 -2500 5 -2502 4 -3 70 53
236 198 67 59 86 75 141 122 44 36 72 60 119 101 85 74 188 163 204 176 10 9
23 21 30 26 6 6 43 37 81 70 39 33 72 62 75 65 5 5 409 352 459 395 13 11 29
25 35 30 6 6 43 37 81 70 38 33 80 69 92 80 12 11 28 25 35 30 8 6 34 28 59
50 24 22 69 61 99 87 91 77 104 88 130 111 14 12 88 76 165 142 77 66 145 125
151 130 6 6 38 33 71 62 33 28 60 58 60 65 0 13 13 191 18 258 1 19 6 78 9
130 4 52 9 115 11 140 10 111 15 170 20 245 3 44 7 100 10 125 2 25 7 86 10
135 4 50 8 110 10 135 10 119 15 181 20 254 3 43 8 99 10 125 2 25 7 87 10
136 4 50 8 108 10 130 6 82 17 211 20 255 2 25 6 81 10 125 7 86 10 121 19
260 4 50 8 110 11 135 5 48 13 155 20 260 3 36 7 90 10 120 2 30 7 93 10 139
3 47 8 101 10 120 2 20 7 74 9 121 3 47 8 110 10 140 9 96 17 193 21 265 3 39
7 93 10 120 2 28 7 86 10 130 3 44 8 100 10 125 5 50 15 182 30 400 3 47 7
103 10 125 3 22 7 76 10 120 3 44 7 103 10 130 2 28 7 88 10 135 4 47 8 101
10 120 2 19 7 82 10 140 4 58 9 121 10 140 2 19 6 73 9 120 3 47 8 100 11 118
3 17 2 32 -2 32 -4 0 -73 -47 -153 -105z"/>
<path d="M6425 7492 c-38 -21 -171 -90 -295 -154 -379 -195 -445 -230 -457
-240 -7 -6 -13 -7 -13 -3 0 4 -6 3 -12 -3 -7 -5 -76 -42 -153 -82 -77 -40
-212 -110 -300 -155 -88 -46 -206 -106 -262 -135 -81 -42 -103 -57 -103 -74 0
-12 0 -1231 0 -2710 0 -2614 0 -2689 18 -2705 18 -15 142 -125 166 -146 6 -5
47 -41 91 -80 44 -38 93 -82 110 -97 16 -14 39 -35 51 -45 11 -10 89 -79 173
-153 84 -74 155 -136 160 -138 4 -1 33 62 66 140 32 79 66 161 76 183 10 22
43 103 74 180 31 77 62 154 70 170 8 17 42 98 76 180 34 83 77 188 96 235 19
47 45 110 58 140 59 146 239 580 254 615 10 22 28 67 41 100 13 33 26 65 30
70 4 6 17 38 30 73 12 34 28 66 34 70 12 8 2963 10 2974 2 5 -3 16 -27 26 -55
10 -27 27 -68 36 -90 10 -22 34 -80 54 -130 20 -49 41 -99 46 -110 5 -11 26
-60 46 -110 20 -49 42 -103 49 -120 16 -37 136 -327 200 -485 26 -63 54 -131
62 -150 8 -19 19 -44 23 -55 4 -11 15 -36 23 -55 9 -19 25 -60 37 -90 12 -30
28 -71 37 -90 8 -19 19 -44 23 -55 4 -11 20 -46 34 -78 14 -32 26 -60 26 -64
0 -3 16 -45 36 -92 20 -47 39 -95 44 -106 4 -11 15 -36 23 -55 8 -19 28 -66
42 -103 15 -37 31 -67 36 -65 4 2 38 32 76 68 246 232 359 339 437 412 49 46
127 119 174 164 l84 80 0 2683 c0 1475 -2 2684 -4 2686 -5 5 -122 66 -328 173
-413 213 -464 239 -588 303 -70 36 -221 114 -337 174 -115 59 -256 132 -313
161 -56 30 -105 54 -108 54 -2 0 -2 -397 1 -882 3 -486 7 -1356 10 -1933 l5
-1051 -1500 0 -1500 0 5 1011 c3 555 7 1425 10 1933 3 507 2 922 -3 922 -4 0
-38 -18 -77 -38z"/>
<path d="M6834 2169 c-7 -15 -25 -57 -39 -95 -14 -38 -30 -78 -35 -89 -5 -11
-35 -85 -65 -165 -31 -80 -60 -154 -65 -165 -9 -20 -224 -563 -342 -865 -33
-85 -66 -168 -73 -185 -7 -16 -42 -103 -78 -193 -60 -152 -63 -162 -43 -163
92 -4 3800 -3 3807 2 9 5 -9 59 -52 156 -11 24 -19 48 -19 54 0 6 -6 23 -14
37 -8 15 -41 97 -74 182 -98 250 -252 643 -262 665 -5 11 -43 106 -83 210
-158 403 -189 481 -202 510 -7 17 -20 51 -30 78 -10 26 -20 48 -24 48 -3 1
-521 2 -1150 3 l-1143 1 -14 -26z"/>
</g>
</svg>
